<?xml version="1.0" encoding="iso-8859-1"?>
<!DOCTYPE svg PUBLIC "-//W3C//DTD SVG 1.1//EN" "http://www.w3.org/Graphics/SVG/1.1/DTD/svg11.dtd">
<svg 
 version="1.1" xmlns="http://www.w3.org/2000/svg" xmlns:xlink="http://www.w3.org/1999/xlink" x="0px" y="0px" width="512px"
	 height="512px" viewBox="0 0 512 512" style="enable-background:new 0 0 512 512;" xml:space="preserve"
><g id="de95281e9f52527e65bb740c5900deae"><g></g><path style="display: inline;" d="M242.85,106.984c0,11.712-9.554,21.266-21.163,21.266l0,0c-11.814,0-21.369-9.554-21.369-21.266
		V21.766c0-11.712,9.555-21.266,21.369-21.266l0,0c11.609,0,21.163,9.554,21.163,21.266V106.984z M242.85,405.067
		c0-11.814-9.554-21.369-21.163-21.369l0,0c-11.814,0-21.369,9.555-21.369,21.369v85.167c0,11.814,9.555,21.266,21.369,21.266l0,0
		c11.609,0,21.163-9.451,21.163-21.266V405.067z M370.651,234.734c-11.712,0-21.267,9.554-21.267,21.266l0,0
		c0,11.763,9.555,21.317,21.267,21.317h85.166c11.814,0,21.369-9.555,21.369-21.317l0,0c0-11.712-9.555-21.266-21.369-21.266
		H370.651z M71.078,75.342c-8.322-8.321-21.882-8.321-30.204,0l0,0c-8.321,8.322-8.321,21.78,0,30.101l60.202,60.254
		c8.424,8.321,21.883,8.321,30.204,0l0,0c8.321-8.373,8.321-21.78,0-30.153L71.078,75.342z M342.091,346.354
		c-8.321-8.321-21.779-8.321-30.204,0l0,0c-8.321,8.321-8.321,21.729,0,30.05l60.306,60.305c8.321,8.322,21.779,8.322,30.101,0l0,0
		c8.321-8.321,8.321-21.779,0-30.101L342.091,346.354z M40.874,406.608c-8.321,8.321-8.321,21.779,0,30.101l0,0
		c8.322,8.322,21.882,8.322,30.204,0l60.202-60.305c8.321-8.321,8.321-21.729,0-30.05l0,0c-8.321-8.321-21.78-8.321-30.204,0
		L40.874,406.608z M311.887,135.544c-8.321,8.373-8.321,21.78,0,30.153l0,0c8.425,8.321,21.883,8.321,30.204,0l60.202-60.254
		c8.321-8.321,8.321-21.779,0-30.101l0,0c-8.321-8.321-21.779-8.321-30.101,0L311.887,135.544z"></path></g></svg>